<mxfile host="app.diagrams.net" modified="2023-01-06T10:38:29.130Z" agent="5.0 (Windows NT 10.0; Win64; x64) AppleWebKit/537.36 (KHTML, like Gecko) Chrome/108.0.0.0 Safari/537.36" etag="_FCZHI7Smn6SqAdhJ_H2" version="20.5.3" type="github">
  <diagram id="FTpUNVI0Bw1oSxbN0FBX" name="第 1 页">
    <mxGraphModel dx="1209" dy="740" grid="1" gridSize="10" guides="1" tooltips="1" connect="1" arrows="1" fold="1" page="1" pageScale="1" pageWidth="827" pageHeight="1169" math="0" shadow="0">
      <root>
        <mxCell id="0" />
        <mxCell id="1" parent="0" />
        <mxCell id="9W78eL1xogv7Uj0qjgDy-1" value="&lt;font style=&quot;font-size: 12px;&quot;&gt;虚拟源点&lt;/font&gt;" style="ellipse;whiteSpace=wrap;html=1;fillColor=#f5f5f5;fontColor=#333333;strokeColor=#666666;" vertex="1" parent="1">
          <mxGeometry x="502.5" y="160" width="90" height="50" as="geometry" />
        </mxCell>
        <mxCell id="9W78eL1xogv7Uj0qjgDy-3" value="S1" style="ellipse;whiteSpace=wrap;html=1;fontSize=12;fillColor=#dae8fc;strokeColor=#6c8ebf;" vertex="1" parent="1">
          <mxGeometry x="290" y="300" width="40" height="40" as="geometry" />
        </mxCell>
        <mxCell id="9W78eL1xogv7Uj0qjgDy-4" value="S7" style="ellipse;whiteSpace=wrap;html=1;fontSize=12;fillColor=#dae8fc;strokeColor=#6c8ebf;" vertex="1" parent="1">
          <mxGeometry x="770" y="300" width="40" height="40" as="geometry" />
        </mxCell>
        <mxCell id="9W78eL1xogv7Uj0qjgDy-5" value="a1" style="ellipse;whiteSpace=wrap;html=1;fontSize=12;fillColor=#fff2cc;strokeColor=#d6b656;" vertex="1" parent="1">
          <mxGeometry x="290" y="540" width="40" height="40" as="geometry" />
        </mxCell>
        <mxCell id="9W78eL1xogv7Uj0qjgDy-7" value="a5171" style="ellipse;whiteSpace=wrap;html=1;fontSize=12;fillColor=#fff2cc;strokeColor=#d6b656;" vertex="1" parent="1">
          <mxGeometry x="770" y="540" width="40" height="40" as="geometry" />
        </mxCell>
        <mxCell id="9W78eL1xogv7Uj0qjgDy-9" value="&lt;font style=&quot;font-size: 12px;&quot;&gt;虚拟汇点&lt;/font&gt;" style="ellipse;whiteSpace=wrap;html=1;fillColor=#f5f5f5;fontColor=#333333;strokeColor=#666666;" vertex="1" parent="1">
          <mxGeometry x="502.5" y="660" width="90" height="50" as="geometry" />
        </mxCell>
        <mxCell id="9W78eL1xogv7Uj0qjgDy-11" value="" style="endArrow=none;html=1;rounded=0;fontSize=12;entryX=0.5;entryY=0;entryDx=0;entryDy=0;exitX=0;exitY=1;exitDx=0;exitDy=0;endFill=0;dashed=1;" edge="1" parent="1" source="9W78eL1xogv7Uj0qjgDy-1" target="9W78eL1xogv7Uj0qjgDy-3">
          <mxGeometry width="50" height="50" relative="1" as="geometry">
            <mxPoint x="500" y="210" as="sourcePoint" />
            <mxPoint x="550" y="270" as="targetPoint" />
          </mxGeometry>
        </mxCell>
        <mxCell id="9W78eL1xogv7Uj0qjgDy-12" value="" style="endArrow=none;html=1;rounded=0;fontSize=12;exitX=1;exitY=1;exitDx=0;exitDy=0;entryX=0.5;entryY=0;entryDx=0;entryDy=0;endFill=0;dashed=1;" edge="1" parent="1" source="9W78eL1xogv7Uj0qjgDy-1" target="9W78eL1xogv7Uj0qjgDy-4">
          <mxGeometry width="50" height="50" relative="1" as="geometry">
            <mxPoint x="550" y="300" as="sourcePoint" />
            <mxPoint x="600" y="250" as="targetPoint" />
          </mxGeometry>
        </mxCell>
        <mxCell id="9W78eL1xogv7Uj0qjgDy-16" value="" style="endArrow=none;html=1;rounded=0;fontSize=12;exitX=0.5;exitY=1;exitDx=0;exitDy=0;entryX=0.5;entryY=0;entryDx=0;entryDy=0;endFill=0;" edge="1" parent="1" source="9W78eL1xogv7Uj0qjgDy-3" target="9W78eL1xogv7Uj0qjgDy-5">
          <mxGeometry width="50" height="50" relative="1" as="geometry">
            <mxPoint x="540" y="500" as="sourcePoint" />
            <mxPoint x="590" y="450" as="targetPoint" />
          </mxGeometry>
        </mxCell>
        <mxCell id="9W78eL1xogv7Uj0qjgDy-17" value="" style="endArrow=none;html=1;rounded=0;fontSize=12;exitX=0.5;exitY=1;exitDx=0;exitDy=0;entryX=0.5;entryY=0;entryDx=0;entryDy=0;endFill=0;" edge="1" parent="1" source="9W78eL1xogv7Uj0qjgDy-4" target="9W78eL1xogv7Uj0qjgDy-7">
          <mxGeometry width="50" height="50" relative="1" as="geometry">
            <mxPoint x="700" y="500" as="sourcePoint" />
            <mxPoint x="750" y="450" as="targetPoint" />
          </mxGeometry>
        </mxCell>
        <mxCell id="9W78eL1xogv7Uj0qjgDy-18" value="" style="endArrow=none;html=1;rounded=0;fontSize=12;exitX=0.5;exitY=1;exitDx=0;exitDy=0;entryX=0.5;entryY=0;entryDx=0;entryDy=0;endFill=0;" edge="1" parent="1" source="9W78eL1xogv7Uj0qjgDy-3" target="9W78eL1xogv7Uj0qjgDy-7">
          <mxGeometry width="50" height="50" relative="1" as="geometry">
            <mxPoint x="530" y="480" as="sourcePoint" />
            <mxPoint x="580" y="430" as="targetPoint" />
          </mxGeometry>
        </mxCell>
        <mxCell id="9W78eL1xogv7Uj0qjgDy-19" value="" style="endArrow=none;html=1;rounded=0;fontSize=12;exitX=0.5;exitY=1;exitDx=0;exitDy=0;entryX=0.5;entryY=0;entryDx=0;entryDy=0;endFill=0;" edge="1" parent="1" source="9W78eL1xogv7Uj0qjgDy-4" target="9W78eL1xogv7Uj0qjgDy-5">
          <mxGeometry width="50" height="50" relative="1" as="geometry">
            <mxPoint x="550" y="500" as="sourcePoint" />
            <mxPoint x="600" y="450" as="targetPoint" />
          </mxGeometry>
        </mxCell>
        <mxCell id="9W78eL1xogv7Uj0qjgDy-21" value="... Si ..." style="ellipse;whiteSpace=wrap;html=1;fontSize=12;fillColor=#dae8fc;strokeColor=#6c8ebf;" vertex="1" parent="1">
          <mxGeometry x="505" y="300" width="85" height="40" as="geometry" />
        </mxCell>
        <mxCell id="9W78eL1xogv7Uj0qjgDy-23" value="... aj ..." style="ellipse;whiteSpace=wrap;html=1;fontSize=12;fillColor=#fff2cc;strokeColor=#d6b656;" vertex="1" parent="1">
          <mxGeometry x="462.5" y="540" width="170" height="40" as="geometry" />
        </mxCell>
        <mxCell id="9W78eL1xogv7Uj0qjgDy-24" value="" style="endArrow=none;html=1;rounded=0;fontSize=12;exitX=0.5;exitY=1;exitDx=0;exitDy=0;entryX=0.5;entryY=0;entryDx=0;entryDy=0;endFill=0;" edge="1" parent="1" source="9W78eL1xogv7Uj0qjgDy-21" target="9W78eL1xogv7Uj0qjgDy-23">
          <mxGeometry width="50" height="50" relative="1" as="geometry">
            <mxPoint x="620" y="500" as="sourcePoint" />
            <mxPoint x="670" y="450" as="targetPoint" />
          </mxGeometry>
        </mxCell>
        <mxCell id="9W78eL1xogv7Uj0qjgDy-25" value="" style="endArrow=none;html=1;rounded=0;fontSize=12;exitX=0.5;exitY=1;exitDx=0;exitDy=0;entryX=0.5;entryY=0;entryDx=0;entryDy=0;endFill=0;" edge="1" parent="1" source="9W78eL1xogv7Uj0qjgDy-21" target="9W78eL1xogv7Uj0qjgDy-7">
          <mxGeometry width="50" height="50" relative="1" as="geometry">
            <mxPoint x="500" y="410" as="sourcePoint" />
            <mxPoint x="550" y="360" as="targetPoint" />
          </mxGeometry>
        </mxCell>
        <mxCell id="9W78eL1xogv7Uj0qjgDy-26" value="" style="endArrow=none;html=1;rounded=0;fontSize=12;exitX=0.5;exitY=1;exitDx=0;exitDy=0;entryX=0.5;entryY=0;entryDx=0;entryDy=0;endFill=0;" edge="1" parent="1" source="9W78eL1xogv7Uj0qjgDy-21" target="9W78eL1xogv7Uj0qjgDy-5">
          <mxGeometry width="50" height="50" relative="1" as="geometry">
            <mxPoint x="520" y="400" as="sourcePoint" />
            <mxPoint x="570" y="350" as="targetPoint" />
          </mxGeometry>
        </mxCell>
        <mxCell id="9W78eL1xogv7Uj0qjgDy-27" value="" style="endArrow=none;html=1;rounded=0;fontSize=12;entryX=0.5;entryY=0;entryDx=0;entryDy=0;endFill=0;exitX=0.5;exitY=1;exitDx=0;exitDy=0;" edge="1" parent="1" source="9W78eL1xogv7Uj0qjgDy-3" target="9W78eL1xogv7Uj0qjgDy-23">
          <mxGeometry width="50" height="50" relative="1" as="geometry">
            <mxPoint x="390" y="340" as="sourcePoint" />
            <mxPoint x="290" y="420" as="targetPoint" />
          </mxGeometry>
        </mxCell>
        <mxCell id="9W78eL1xogv7Uj0qjgDy-28" value="" style="endArrow=none;html=1;rounded=0;fontSize=12;exitX=0.5;exitY=1;exitDx=0;exitDy=0;entryX=0.5;entryY=0;entryDx=0;entryDy=0;endFill=0;" edge="1" parent="1" source="9W78eL1xogv7Uj0qjgDy-4" target="9W78eL1xogv7Uj0qjgDy-23">
          <mxGeometry width="50" height="50" relative="1" as="geometry">
            <mxPoint x="840" y="430" as="sourcePoint" />
            <mxPoint x="890" y="380" as="targetPoint" />
          </mxGeometry>
        </mxCell>
        <mxCell id="9W78eL1xogv7Uj0qjgDy-29" value="" style="endArrow=none;html=1;rounded=0;fontSize=12;exitX=0.5;exitY=1;exitDx=0;exitDy=0;entryX=0.5;entryY=0;entryDx=0;entryDy=0;endFill=0;dashed=1;" edge="1" parent="1" source="9W78eL1xogv7Uj0qjgDy-1" target="9W78eL1xogv7Uj0qjgDy-21">
          <mxGeometry width="50" height="50" relative="1" as="geometry">
            <mxPoint x="780" y="270" as="sourcePoint" />
            <mxPoint x="830" y="220" as="targetPoint" />
          </mxGeometry>
        </mxCell>
        <mxCell id="9W78eL1xogv7Uj0qjgDy-30" value="" style="endArrow=none;html=1;rounded=0;fontSize=12;exitX=0.5;exitY=1;exitDx=0;exitDy=0;entryX=0.5;entryY=0;entryDx=0;entryDy=0;endFill=0;" edge="1" parent="1" source="9W78eL1xogv7Uj0qjgDy-5" target="9W78eL1xogv7Uj0qjgDy-9">
          <mxGeometry width="50" height="50" relative="1" as="geometry">
            <mxPoint x="400" y="650" as="sourcePoint" />
            <mxPoint x="450" y="600" as="targetPoint" />
          </mxGeometry>
        </mxCell>
        <mxCell id="9W78eL1xogv7Uj0qjgDy-31" value="" style="endArrow=none;html=1;rounded=0;fontSize=12;exitX=0.5;exitY=1;exitDx=0;exitDy=0;entryX=0.5;entryY=0;entryDx=0;entryDy=0;endFill=0;" edge="1" parent="1" source="9W78eL1xogv7Uj0qjgDy-23" target="9W78eL1xogv7Uj0qjgDy-9">
          <mxGeometry width="50" height="50" relative="1" as="geometry">
            <mxPoint x="760" y="690" as="sourcePoint" />
            <mxPoint x="810" y="640" as="targetPoint" />
          </mxGeometry>
        </mxCell>
        <mxCell id="9W78eL1xogv7Uj0qjgDy-32" value="" style="endArrow=none;html=1;rounded=0;fontSize=12;exitX=0.5;exitY=1;exitDx=0;exitDy=0;entryX=0.5;entryY=0;entryDx=0;entryDy=0;endFill=0;" edge="1" parent="1" source="9W78eL1xogv7Uj0qjgDy-7" target="9W78eL1xogv7Uj0qjgDy-9">
          <mxGeometry width="50" height="50" relative="1" as="geometry">
            <mxPoint x="760" y="680" as="sourcePoint" />
            <mxPoint x="810" y="630" as="targetPoint" />
          </mxGeometry>
        </mxCell>
        <mxCell id="9W78eL1xogv7Uj0qjgDy-36" value="&lt;font style=&quot;font-size: 18px;&quot;&gt;钢厂&lt;/font&gt;" style="text;html=1;align=center;verticalAlign=middle;whiteSpace=wrap;rounded=0;fontSize=12;fillColor=#dae8fc;strokeColor=#6c8ebf;" vertex="1" parent="1">
          <mxGeometry x="130" y="305" width="60" height="30" as="geometry" />
        </mxCell>
        <mxCell id="9W78eL1xogv7Uj0qjgDy-37" value="&lt;font style=&quot;font-size: 18px;&quot;&gt;管道上&lt;br&gt;各段&lt;/font&gt;" style="text;html=1;strokeColor=#d6b656;fillColor=#fff2cc;align=center;verticalAlign=middle;whiteSpace=wrap;rounded=0;fontSize=12;" vertex="1" parent="1">
          <mxGeometry x="105" y="532.5" width="100" height="55" as="geometry" />
        </mxCell>
        <mxCell id="9W78eL1xogv7Uj0qjgDy-38" value="线段含义：（&lt;font color=&quot;#ff8000&quot;&gt;费用&lt;/font&gt;/&lt;font color=&quot;#3399ff&quot;&gt;流量上限&lt;/font&gt;）" style="text;html=1;strokeColor=none;fillColor=none;align=center;verticalAlign=middle;whiteSpace=wrap;rounded=0;fontSize=18;fontColor=#000000;fontFamily=Times New Roman;" vertex="1" parent="1">
          <mxGeometry x="184" y="110" width="266" height="30" as="geometry" />
        </mxCell>
        <mxCell id="9W78eL1xogv7Uj0qjgDy-40" value="&lt;font color=&quot;#ff8000&quot;&gt;p1&lt;/font&gt;/&lt;font color=&quot;#3399ff&quot;&gt;s1&lt;/font&gt;" style="text;html=1;strokeColor=none;fillColor=none;align=center;verticalAlign=middle;whiteSpace=wrap;rounded=0;fontSize=18;fontColor=#000000;fontFamily=Times New Roman;" vertex="1" parent="1">
          <mxGeometry x="350" y="230" width="103.5" height="30" as="geometry" />
        </mxCell>
        <mxCell id="9W78eL1xogv7Uj0qjgDy-41" value="&lt;font color=&quot;#ff8000&quot;&gt;p7&lt;/font&gt;/&lt;font color=&quot;#3399ff&quot;&gt;s7&lt;/font&gt;" style="text;html=1;strokeColor=none;fillColor=none;align=center;verticalAlign=middle;whiteSpace=wrap;rounded=0;fontSize=18;fontColor=#000000;fontFamily=Times New Roman;" vertex="1" parent="1">
          <mxGeometry x="666.5" y="230" width="103.5" height="30" as="geometry" />
        </mxCell>
        <mxCell id="9W78eL1xogv7Uj0qjgDy-42" value="&lt;font color=&quot;#ff8000&quot;&gt;pi&lt;/font&gt;/&lt;font color=&quot;#3399ff&quot;&gt;si&lt;/font&gt;" style="text;html=1;strokeColor=none;fillColor=none;align=center;verticalAlign=middle;whiteSpace=wrap;rounded=0;fontSize=18;fontColor=#000000;fontFamily=Times New Roman;" vertex="1" parent="1">
          <mxGeometry x="495.75" y="230" width="103.5" height="30" as="geometry" />
        </mxCell>
        <mxCell id="9W78eL1xogv7Uj0qjgDy-43" value="（&lt;font color=&quot;#ff8000&quot;&gt;钢厂单价&lt;/font&gt;/&lt;font color=&quot;#3399ff&quot;&gt;产量上限&lt;/font&gt;）" style="text;html=1;strokeColor=none;fillColor=none;align=center;verticalAlign=middle;whiteSpace=wrap;rounded=0;fontSize=18;fontColor=#000000;fontFamily=Times New Roman;" vertex="1" parent="1">
          <mxGeometry x="65" y="230" width="190" height="30" as="geometry" />
        </mxCell>
        <mxCell id="9W78eL1xogv7Uj0qjgDy-44" value="（&lt;font color=&quot;#ff8000&quot;&gt;最小运费&lt;/font&gt;/&lt;font color=&quot;#3399ff&quot;&gt;1&lt;/font&gt;）&lt;br&gt;注：只能运1单位，故流量上限均为1" style="text;html=1;strokeColor=none;fillColor=none;align=center;verticalAlign=middle;whiteSpace=wrap;rounded=0;fontSize=18;fontColor=#000000;fontFamily=Times New Roman;" vertex="1" parent="1">
          <mxGeometry x="50" y="390" width="210" height="70" as="geometry" />
        </mxCell>
        <mxCell id="9W78eL1xogv7Uj0qjgDy-45" value="&lt;font color=&quot;#ff8000&quot;&gt;0&lt;/font&gt;/&lt;font color=&quot;#3399ff&quot;&gt;1&lt;/font&gt;" style="text;html=1;strokeColor=none;fillColor=none;align=center;verticalAlign=middle;whiteSpace=wrap;rounded=0;fontSize=18;fontColor=#000000;fontFamily=Times New Roman;" vertex="1" parent="1">
          <mxGeometry x="350" y="620" width="103.5" height="30" as="geometry" />
        </mxCell>
        <mxCell id="9W78eL1xogv7Uj0qjgDy-46" value="&lt;font color=&quot;#ff8000&quot;&gt;0&lt;/font&gt;/&lt;font color=&quot;#3399ff&quot;&gt;1&lt;/font&gt;" style="text;html=1;strokeColor=none;fillColor=none;align=center;verticalAlign=middle;whiteSpace=wrap;rounded=0;fontSize=18;fontColor=#000000;fontFamily=Times New Roman;" vertex="1" parent="1">
          <mxGeometry x="666.5" y="620" width="103.5" height="30" as="geometry" />
        </mxCell>
        <mxCell id="9W78eL1xogv7Uj0qjgDy-47" value="&lt;font color=&quot;#ff8000&quot;&gt;0&lt;/font&gt;/&lt;font color=&quot;#3399ff&quot;&gt;1&lt;/font&gt;" style="text;html=1;strokeColor=none;fillColor=none;align=center;verticalAlign=middle;whiteSpace=wrap;rounded=0;fontSize=18;fontColor=#000000;fontFamily=Times New Roman;" vertex="1" parent="1">
          <mxGeometry x="495.75" y="620" width="103.5" height="30" as="geometry" />
        </mxCell>
        <mxCell id="9W78eL1xogv7Uj0qjgDy-48" value="（&lt;font color=&quot;#ff8000&quot;&gt;0&lt;/font&gt;/&lt;font color=&quot;#3399ff&quot;&gt;1&lt;/font&gt;）" style="text;html=1;strokeColor=none;fillColor=none;align=center;verticalAlign=middle;whiteSpace=wrap;rounded=0;fontSize=18;fontColor=#000000;fontFamily=Times New Roman;" vertex="1" parent="1">
          <mxGeometry x="65" y="620" width="190" height="30" as="geometry" />
        </mxCell>
        <mxCell id="9W78eL1xogv7Uj0qjgDy-49" value="&lt;font color=&quot;#ff8000&quot;&gt;f(s1,a1)&lt;/font&gt;/&lt;font color=&quot;#3399ff&quot;&gt;1&lt;/font&gt;" style="text;html=1;strokeColor=none;fillColor=none;align=center;verticalAlign=middle;whiteSpace=wrap;rounded=0;fontSize=18;fontColor=#000000;fontFamily=Times New Roman;" vertex="1" parent="1">
          <mxGeometry x="240" y="380" width="103.5" height="30" as="geometry" />
        </mxCell>
        <mxCell id="9W78eL1xogv7Uj0qjgDy-50" value="&lt;font color=&quot;#ff8000&quot;&gt;f(si,aj)&lt;/font&gt;/&lt;font color=&quot;#3399ff&quot;&gt;1&lt;/font&gt;" style="text;html=1;strokeColor=none;fillColor=none;align=center;verticalAlign=middle;whiteSpace=wrap;rounded=0;fontSize=18;fontColor=#000000;fontFamily=Times New Roman;" vertex="1" parent="1">
          <mxGeometry x="489" y="380" width="103.5" height="30" as="geometry" />
        </mxCell>
        <mxCell id="9W78eL1xogv7Uj0qjgDy-51" value="&lt;font color=&quot;#ff8000&quot;&gt;f(s7,a5171)&lt;/font&gt;/&lt;font color=&quot;#3399ff&quot;&gt;1&lt;/font&gt;" style="text;html=1;strokeColor=none;fillColor=none;align=center;verticalAlign=middle;whiteSpace=wrap;rounded=0;fontSize=18;fontColor=#000000;fontFamily=Times New Roman;" vertex="1" parent="1">
          <mxGeometry x="720" y="380" width="103.5" height="30" as="geometry" />
        </mxCell>
        <mxCell id="9W78eL1xogv7Uj0qjgDy-53" value="&lt;font color=&quot;#ff8000&quot;&gt;f(si,a1)&lt;/font&gt;/&lt;font color=&quot;#3399ff&quot;&gt;1&lt;/font&gt;" style="text;html=1;strokeColor=none;fillColor=none;align=center;verticalAlign=middle;whiteSpace=wrap;rounded=0;fontSize=18;fontColor=#000000;fontFamily=Times New Roman;" vertex="1" parent="1">
          <mxGeometry x="430" y="350" width="103.5" height="30" as="geometry" />
        </mxCell>
        <mxCell id="9W78eL1xogv7Uj0qjgDy-54" value="&lt;font color=&quot;#ff8000&quot;&gt;f(si,a5171)&lt;/font&gt;/&lt;font color=&quot;#3399ff&quot;&gt;1&lt;/font&gt;" style="text;html=1;strokeColor=none;fillColor=none;align=center;verticalAlign=middle;whiteSpace=wrap;rounded=0;fontSize=18;fontColor=#000000;fontFamily=Times New Roman;" vertex="1" parent="1">
          <mxGeometry x="550" y="350" width="103.5" height="30" as="geometry" />
        </mxCell>
        <mxCell id="9W78eL1xogv7Uj0qjgDy-55" value="&lt;font color=&quot;#ff8000&quot;&gt;f(s1,a5171)&lt;/font&gt;/&lt;font color=&quot;#3399ff&quot;&gt;1&lt;/font&gt;" style="text;html=1;strokeColor=none;fillColor=none;align=center;verticalAlign=middle;whiteSpace=wrap;rounded=0;fontSize=18;fontColor=#000000;fontFamily=Times New Roman;" vertex="1" parent="1">
          <mxGeometry x="320" y="335" width="103.5" height="30" as="geometry" />
        </mxCell>
        <mxCell id="9W78eL1xogv7Uj0qjgDy-56" value="&lt;font color=&quot;#ff8000&quot;&gt;f(s7,a1)&lt;/font&gt;/&lt;font color=&quot;#3399ff&quot;&gt;1&lt;/font&gt;" style="text;html=1;strokeColor=none;fillColor=none;align=center;verticalAlign=middle;whiteSpace=wrap;rounded=0;fontSize=18;fontColor=#000000;fontFamily=Times New Roman;" vertex="1" parent="1">
          <mxGeometry x="680" y="335" width="103.5" height="30" as="geometry" />
        </mxCell>
        <mxCell id="9W78eL1xogv7Uj0qjgDy-57" value="&lt;font color=&quot;#ff8000&quot;&gt;f(s7,aj)&lt;/font&gt;/&lt;font color=&quot;#3399ff&quot;&gt;1&lt;/font&gt;" style="text;html=1;strokeColor=none;fillColor=none;align=center;verticalAlign=middle;whiteSpace=wrap;rounded=0;fontSize=18;fontColor=#000000;fontFamily=Times New Roman;" vertex="1" parent="1">
          <mxGeometry x="550" y="500" width="103.5" height="30" as="geometry" />
        </mxCell>
        <mxCell id="9W78eL1xogv7Uj0qjgDy-58" value="&lt;font color=&quot;#ff8000&quot;&gt;f(s1,aj)&lt;/font&gt;/&lt;font color=&quot;#3399ff&quot;&gt;1&lt;/font&gt;" style="text;html=1;strokeColor=none;fillColor=none;align=center;verticalAlign=middle;whiteSpace=wrap;rounded=0;fontSize=18;fontColor=#000000;fontFamily=Times New Roman;" vertex="1" parent="1">
          <mxGeometry x="430" y="500" width="103.5" height="30" as="geometry" />
        </mxCell>
      </root>
    </mxGraphModel>
  </diagram>
</mxfile>
